<svg width="123" height="91" viewBox="0 0 123 91" fill="none" xmlns="http://www.w3.org/2000/svg">
<g filter="url(#filter0_d_1_308)">
<path fill-rule="evenodd" clip-rule="evenodd" d="M7.19231 81.4167C7.19231 80.5422 6.47769 79.8333 5.59615 79.8333C4.71462 79.8333 4 80.5422 4 81.4167C4 82.2911 4.71462 83 5.59615 83C6.47769 83 7.19231 82.2911 7.19231 81.4167ZM23.1538 81.4167C23.1538 80.5422 22.4392 79.8333 21.5577 79.8333C20.6762 79.8333 19.9615 80.5422 19.9615 81.4167C19.9615 82.2911 20.6762 83 21.5577 83C22.4392 83 23.1538 82.2911 23.1538 81.4167ZM37.5192 79.8333C38.4008 79.8333 39.1154 80.5422 39.1154 81.4167C39.1154 82.2911 38.4008 83 37.5192 83C36.6377 83 35.9231 82.2911 35.9231 81.4167C35.9231 80.5422 36.6377 79.8333 37.5192 79.8333ZM55.0769 81.4167C55.0769 80.5422 54.3623 79.8333 53.4808 79.8333C52.5992 79.8333 51.8846 80.5422 51.8846 81.4167C51.8846 82.2911 52.5992 83 53.4808 83C54.3623 83 55.0769 82.2911 55.0769 81.4167ZM69.4423 79.8333C70.3238 79.8333 71.0385 80.5422 71.0385 81.4167C71.0385 82.2911 70.3238 83 69.4423 83C68.5608 83 67.8462 82.2911 67.8462 81.4167C67.8462 80.5422 68.5608 79.8333 69.4423 79.8333ZM87 81.4167C87 80.5422 86.2854 79.8333 85.4038 79.8333C84.5223 79.8333 83.8077 80.5422 83.8077 81.4167C83.8077 82.2911 84.5223 83 85.4038 83C86.2854 83 87 82.2911 87 81.4167ZM5.59615 64C6.47769 64 7.19231 64.7089 7.19231 65.5833C7.19231 66.4578 6.47769 67.1667 5.59615 67.1667C4.71462 67.1667 4 66.4578 4 65.5833C4 64.7089 4.71462 64 5.59615 64ZM23.1538 65.5833C23.1538 64.7089 22.4392 64 21.5577 64C20.6762 64 19.9615 64.7089 19.9615 65.5833C19.9615 66.4578 20.6762 67.1667 21.5577 67.1667C22.4392 67.1667 23.1538 66.4578 23.1538 65.5833ZM37.5192 64C38.4008 64 39.1154 64.7089 39.1154 65.5833C39.1154 66.4578 38.4008 67.1667 37.5192 67.1667C36.6377 67.1667 35.9231 66.4578 35.9231 65.5833C35.9231 64.7089 36.6377 64 37.5192 64ZM55.0769 65.5833C55.0769 64.7089 54.3623 64 53.4808 64C52.5992 64 51.8846 64.7089 51.8846 65.5833C51.8846 66.4578 52.5992 67.1667 53.4808 67.1667C54.3623 67.1667 55.0769 66.4578 55.0769 65.5833ZM69.4423 64C70.3238 64 71.0385 64.7089 71.0385 65.5833C71.0385 66.4578 70.3238 67.1667 69.4423 67.1667C68.5608 67.1667 67.8462 66.4578 67.8462 65.5833C67.8462 64.7089 68.5608 64 69.4423 64ZM87 65.5833C87 64.7089 86.2854 64 85.4038 64C84.5223 64 83.8077 64.7089 83.8077 65.5833C83.8077 66.4578 84.5223 67.1667 85.4038 67.1667C86.2854 67.1667 87 66.4578 87 65.5833Z" fill="white"/>
<path fill-rule="evenodd" clip-rule="evenodd" d="M117.417 79.8077C116.542 79.8077 115.833 80.5223 115.833 81.4038C115.833 82.2854 116.542 83 117.417 83C118.291 83 119 82.2854 119 81.4038C119 80.5223 118.291 79.8077 117.417 79.8077ZM117.417 63.8462C116.542 63.8462 115.833 64.5608 115.833 65.4423C115.833 66.3238 116.542 67.0385 117.417 67.0385C118.291 67.0385 119 66.3238 119 65.4423C119 64.5608 118.291 63.8462 117.417 63.8462ZM115.833 49.4808C115.833 48.5992 116.542 47.8846 117.417 47.8846C118.291 47.8846 119 48.5992 119 49.4808C119 50.3623 118.291 51.0769 117.417 51.0769C116.542 51.0769 115.833 50.3623 115.833 49.4808ZM117.417 31.9231C116.542 31.9231 115.833 32.6377 115.833 33.5192C115.833 34.4008 116.542 35.1154 117.417 35.1154C118.291 35.1154 119 34.4008 119 33.5192C119 32.6377 118.291 31.9231 117.417 31.9231ZM115.833 17.5577C115.833 16.6762 116.542 15.9615 117.417 15.9615C118.291 15.9615 119 16.6762 119 17.5577C119 18.4392 118.291 19.1538 117.417 19.1538C116.542 19.1538 115.833 18.4392 115.833 17.5577ZM117.417 0C116.542 0 115.833 0.71463 115.833 1.59615C115.833 2.47769 116.542 3.19231 117.417 3.19231C118.291 3.19231 119 2.47769 119 1.59615C119 0.71463 118.291 0 117.417 0ZM100 81.4038C100 80.5223 100.709 79.8077 101.583 79.8077C102.458 79.8077 103.167 80.5223 103.167 81.4038C103.167 82.2854 102.458 83 101.583 83C100.709 83 100 82.2854 100 81.4038ZM101.583 63.8462C100.709 63.8462 100 64.5608 100 65.4423C100 66.3238 100.709 67.0385 101.583 67.0385C102.458 67.0385 103.167 66.3238 103.167 65.4423C103.167 64.5608 102.458 63.8462 101.583 63.8462ZM100 49.4808C100 48.5992 100.709 47.8846 101.583 47.8846C102.458 47.8846 103.167 48.5992 103.167 49.4808C103.167 50.3623 102.458 51.0769 101.583 51.0769C100.709 51.0769 100 50.3623 100 49.4808ZM101.583 31.9231C100.709 31.9231 100 32.6377 100 33.5192C100 34.4008 100.709 35.1154 101.583 35.1154C102.458 35.1154 103.167 34.4008 103.167 33.5192C103.167 32.6377 102.458 31.9231 101.583 31.9231ZM100 17.5577C100 16.6762 100.709 15.9615 101.583 15.9615C102.458 15.9615 103.167 16.6762 103.167 17.5577C103.167 18.4392 102.458 19.1538 101.583 19.1538C100.709 19.1538 100 18.4392 100 17.5577ZM101.583 0C100.709 0 100 0.71463 100 1.59615C100 2.47769 100.709 3.19231 101.583 3.19231C102.458 3.19231 103.167 2.47769 103.167 1.59615C103.167 0.71463 102.458 0 101.583 0Z" fill="white"/>
</g>
<defs>
<filter id="filter0_d_1_308" x="0" y="0" width="123" height="91" filterUnits="userSpaceOnUse" color-interpolation-filters="sRGB">
<feFlood flood-opacity="0" result="BackgroundImageFix"/>
<feColorMatrix in="SourceAlpha" type="matrix" values="0 0 0 0 0 0 0 0 0 0 0 0 0 0 0 0 0 0 127 0" result="hardAlpha"/>
<feOffset dy="4"/>
<feGaussianBlur stdDeviation="2"/>
<feComposite in2="hardAlpha" operator="out"/>
<feColorMatrix type="matrix" values="0 0 0 0 0 0 0 0 0 0 0 0 0 0 0 0 0 0 0.25 0"/>
<feBlend mode="normal" in2="BackgroundImageFix" result="effect1_dropShadow_1_308"/>
<feBlend mode="normal" in="SourceGraphic" in2="effect1_dropShadow_1_308" result="shape"/>
</filter>
</defs>
</svg>
